<?xml version="1.0" encoding="UTF-8" standalone="no"?>
<!DOCTYPE svg PUBLIC "-//W3C//DTD SVG 1.1//EN"
 "http://www.w3.org/Graphics/SVG/1.1/DTD/svg11.dtd">
<!-- Generated by graphviz version 2.43.0 (0)
 -->
<!-- Title: Tree Pages: 1 -->
<svg width="903pt" height="561pt"
 viewBox="0.00 0.00 903.00 561.00" xmlns="http://www.w3.org/2000/svg" xmlns:xlink="http://www.w3.org/1999/xlink">
<g id="graph0" class="graph" transform="scale(1 1) rotate(0) translate(4 557)">
<title>Tree</title>
<polygon fill="white" stroke="transparent" points="-4,4 -4,-557 899,-557 899,4 -4,4"/>
<!-- 0 -->
<g id="node1" class="node">
<title>0</title>
<path fill="#ffffff" stroke="black" d="M543,-553C543,-553 409,-553 409,-553 403,-553 397,-547 397,-541 397,-541 397,-501 397,-501 397,-495 403,-489 409,-489 409,-489 543,-489 543,-489 549,-489 555,-495 555,-501 555,-501 555,-541 555,-541 555,-547 549,-553 543,-553"/>
<text text-anchor="start" x="441" y="-538.8" font-family="Helvetica,sans-Serif" font-size="14.00">x</text>
<text text-anchor="start" x="450" y="-538.8" font-family="Helvetica,sans-Serif" baseline-shift="sub" font-size="14.00">2</text>
<text text-anchor="start" x="458" y="-538.8" font-family="Helvetica,sans-Serif" font-size="14.00"> ≤ 2.45</text>
<text text-anchor="start" x="432" y="-524.8" font-family="Helvetica,sans-Serif" font-size="14.00">gini = 0.667</text>
<text text-anchor="start" x="423" y="-510.8" font-family="Helvetica,sans-Serif" font-size="14.00">samples = 150</text>
<text text-anchor="start" x="405" y="-496.8" font-family="Helvetica,sans-Serif" font-size="14.00">value = [50, 50, 50]</text>
</g>
<!-- 1 -->
<g id="node2" class="node">
<title>1</title>
<path fill="#e58139" stroke="black" d="M453,-447.5C453,-447.5 337,-447.5 337,-447.5 331,-447.5 325,-441.5 325,-435.5 325,-435.5 325,-406.5 325,-406.5 325,-400.5 331,-394.5 337,-394.5 337,-394.5 453,-394.5 453,-394.5 459,-394.5 465,-400.5 465,-406.5 465,-406.5 465,-435.5 465,-435.5 465,-441.5 459,-447.5 453,-447.5"/>
<text text-anchor="start" x="360" y="-432.3" font-family="Helvetica,sans-Serif" font-size="14.00">gini = 0.0</text>
<text text-anchor="start" x="346.5" y="-417.3" font-family="Helvetica,sans-Serif" font-size="14.00">samples = 50</text>
<text text-anchor="start" x="333" y="-402.3" font-family="Helvetica,sans-Serif" font-size="14.00">value = [50, 0, 0]</text>
</g>
<!-- 0&#45;&gt;1 -->
<g id="edge1" class="edge">
<title>0&#45;&gt;1</title>
<path fill="none" stroke="black" d="M450.37,-488.99C441.58,-478.36 431.71,-466.41 422.75,-455.58"/>
<polygon fill="black" stroke="black" points="425.19,-453.03 416.12,-447.56 419.8,-457.49 425.19,-453.03"/>
<text text-anchor="middle" x="413.76" y="-468.74" font-family="Helvetica,sans-Serif" font-size="14.00">True</text>
</g>
<!-- 2 -->
<g id="node3" class="node">
<title>2</title>
<path fill="#ffffff" stroke="black" d="M620.5,-453C620.5,-453 495.5,-453 495.5,-453 489.5,-453 483.5,-447 483.5,-441 483.5,-441 483.5,-401 483.5,-401 483.5,-395 489.5,-389 495.5,-389 495.5,-389 620.5,-389 620.5,-389 626.5,-389 632.5,-395 632.5,-401 632.5,-401 632.5,-441 632.5,-441 632.5,-447 626.5,-453 620.5,-453"/>
<text text-anchor="start" x="523" y="-438.8" font-family="Helvetica,sans-Serif" font-size="14.00">x</text>
<text text-anchor="start" x="532" y="-438.8" font-family="Helvetica,sans-Serif" baseline-shift="sub" font-size="14.00">3</text>
<text text-anchor="start" x="540" y="-438.8" font-family="Helvetica,sans-Serif" font-size="14.00"> ≤ 1.75</text>
<text text-anchor="start" x="523" y="-424.8" font-family="Helvetica,sans-Serif" font-size="14.00">gini = 0.5</text>
<text text-anchor="start" x="505" y="-410.8" font-family="Helvetica,sans-Serif" font-size="14.00">samples = 100</text>
<text text-anchor="start" x="491.5" y="-396.8" font-family="Helvetica,sans-Serif" font-size="14.00">value = [0, 50, 50]</text>
</g>
<!-- 0&#45;&gt;2 -->
<g id="edge2" class="edge">
<title>0&#45;&gt;2</title>
<path fill="none" stroke="black" d="M501.95,-488.99C509.42,-480.06 517.68,-470.19 525.5,-460.84"/>
<polygon fill="black" stroke="black" points="528.21,-463.06 531.94,-453.14 522.84,-458.57 528.21,-463.06"/>
<text text-anchor="middle" x="534.16" y="-474.34" font-family="Helvetica,sans-Serif" font-size="14.00">False</text>
</g>
<!-- 3 -->
<g id="node4" class="node">
<title>3</title>
<path fill="#4de88e" stroke="black" d="M503,-353C503,-353 387,-353 387,-353 381,-353 375,-347 375,-341 375,-341 375,-301 375,-301 375,-295 381,-289 387,-289 387,-289 503,-289 503,-289 509,-289 515,-295 515,-301 515,-301 515,-341 515,-341 515,-347 509,-353 503,-353"/>
<text text-anchor="start" x="410" y="-338.8" font-family="Helvetica,sans-Serif" font-size="14.00">x</text>
<text text-anchor="start" x="419" y="-338.8" font-family="Helvetica,sans-Serif" baseline-shift="sub" font-size="14.00">2</text>
<text text-anchor="start" x="427" y="-338.8" font-family="Helvetica,sans-Serif" font-size="14.00"> ≤ 4.95</text>
<text text-anchor="start" x="401" y="-324.8" font-family="Helvetica,sans-Serif" font-size="14.00">gini = 0.168</text>
<text text-anchor="start" x="396.5" y="-310.8" font-family="Helvetica,sans-Serif" font-size="14.00">samples = 54</text>
<text text-anchor="start" x="383" y="-296.8" font-family="Helvetica,sans-Serif" font-size="14.00">value = [0, 49, 5]</text>
</g>
<!-- 2&#45;&gt;3 -->
<g id="edge3" class="edge">
<title>2&#45;&gt;3</title>
<path fill="none" stroke="black" d="M522.25,-388.99C511.53,-379.7 499.66,-369.4 488.5,-359.72"/>
<polygon fill="black" stroke="black" points="490.76,-357.05 480.91,-353.14 486.17,-362.34 490.76,-357.05"/>
</g>
<!-- 12 -->
<g id="node13" class="node">
<title>12</title>
<path fill="#843de6" stroke="black" d="M729,-353C729,-353 613,-353 613,-353 607,-353 601,-347 601,-341 601,-341 601,-301 601,-301 601,-295 607,-289 613,-289 613,-289 729,-289 729,-289 735,-289 741,-295 741,-301 741,-301 741,-341 741,-341 741,-347 735,-353 729,-353"/>
<text text-anchor="start" x="636" y="-338.8" font-family="Helvetica,sans-Serif" font-size="14.00">x</text>
<text text-anchor="start" x="645" y="-338.8" font-family="Helvetica,sans-Serif" baseline-shift="sub" font-size="14.00">2</text>
<text text-anchor="start" x="653" y="-338.8" font-family="Helvetica,sans-Serif" font-size="14.00"> ≤ 4.85</text>
<text text-anchor="start" x="627" y="-324.8" font-family="Helvetica,sans-Serif" font-size="14.00">gini = 0.043</text>
<text text-anchor="start" x="622.5" y="-310.8" font-family="Helvetica,sans-Serif" font-size="14.00">samples = 46</text>
<text text-anchor="start" x="609" y="-296.8" font-family="Helvetica,sans-Serif" font-size="14.00">value = [0, 1, 45]</text>
</g>
<!-- 2&#45;&gt;12 -->
<g id="edge12" class="edge">
<title>2&#45;&gt;12</title>
<path fill="none" stroke="black" d="M593.75,-388.99C604.47,-379.7 616.34,-369.4 627.5,-359.72"/>
<polygon fill="black" stroke="black" points="629.83,-362.34 635.09,-353.14 625.24,-357.05 629.83,-362.34"/>
</g>
<!-- 4 -->
<g id="node5" class="node">
<title>4</title>
<path fill="#3de684" stroke="black" d="M282,-253C282,-253 166,-253 166,-253 160,-253 154,-247 154,-241 154,-241 154,-201 154,-201 154,-195 160,-189 166,-189 166,-189 282,-189 282,-189 288,-189 294,-195 294,-201 294,-201 294,-241 294,-241 294,-247 288,-253 282,-253"/>
<text text-anchor="start" x="189" y="-238.8" font-family="Helvetica,sans-Serif" font-size="14.00">x</text>
<text text-anchor="start" x="198" y="-238.8" font-family="Helvetica,sans-Serif" baseline-shift="sub" font-size="14.00">3</text>
<text text-anchor="start" x="206" y="-238.8" font-family="Helvetica,sans-Serif" font-size="14.00"> ≤ 1.65</text>
<text text-anchor="start" x="180" y="-224.8" font-family="Helvetica,sans-Serif" font-size="14.00">gini = 0.041</text>
<text text-anchor="start" x="175.5" y="-210.8" font-family="Helvetica,sans-Serif" font-size="14.00">samples = 48</text>
<text text-anchor="start" x="162" y="-196.8" font-family="Helvetica,sans-Serif" font-size="14.00">value = [0, 47, 1]</text>
</g>
<!-- 3&#45;&gt;4 -->
<g id="edge4" class="edge">
<title>3&#45;&gt;4</title>
<path fill="none" stroke="black" d="M375.07,-288.99C352.3,-278.89 326.86,-267.61 303.44,-257.23"/>
<polygon fill="black" stroke="black" points="304.79,-254 294.23,-253.14 301.95,-260.4 304.79,-254"/>
</g>
<!-- 7 -->
<g id="node8" class="node">
<title>7</title>
<path fill="#c09cf2" stroke="black" d="M498.5,-253C498.5,-253 391.5,-253 391.5,-253 385.5,-253 379.5,-247 379.5,-241 379.5,-241 379.5,-201 379.5,-201 379.5,-195 385.5,-189 391.5,-189 391.5,-189 498.5,-189 498.5,-189 504.5,-189 510.5,-195 510.5,-201 510.5,-201 510.5,-241 510.5,-241 510.5,-247 504.5,-253 498.5,-253"/>
<text text-anchor="start" x="410" y="-238.8" font-family="Helvetica,sans-Serif" font-size="14.00">x</text>
<text text-anchor="start" x="419" y="-238.8" font-family="Helvetica,sans-Serif" baseline-shift="sub" font-size="14.00">3</text>
<text text-anchor="start" x="427" y="-238.8" font-family="Helvetica,sans-Serif" font-size="14.00"> ≤ 1.55</text>
<text text-anchor="start" x="401" y="-224.8" font-family="Helvetica,sans-Serif" font-size="14.00">gini = 0.444</text>
<text text-anchor="start" x="401" y="-210.8" font-family="Helvetica,sans-Serif" font-size="14.00">samples = 6</text>
<text text-anchor="start" x="387.5" y="-196.8" font-family="Helvetica,sans-Serif" font-size="14.00">value = [0, 2, 4]</text>
</g>
<!-- 3&#45;&gt;7 -->
<g id="edge7" class="edge">
<title>3&#45;&gt;7</title>
<path fill="none" stroke="black" d="M445,-288.99C445,-280.86 445,-271.96 445,-263.38"/>
<polygon fill="black" stroke="black" points="448.5,-263.14 445,-253.14 441.5,-263.14 448.5,-263.14"/>
</g>
<!-- 5 -->
<g id="node6" class="node">
<title>5</title>
<path fill="#39e581" stroke="black" d="M128,-147.5C128,-147.5 12,-147.5 12,-147.5 6,-147.5 0,-141.5 0,-135.5 0,-135.5 0,-106.5 0,-106.5 0,-100.5 6,-94.5 12,-94.5 12,-94.5 128,-94.5 128,-94.5 134,-94.5 140,-100.5 140,-106.5 140,-106.5 140,-135.5 140,-135.5 140,-141.5 134,-147.5 128,-147.5"/>
<text text-anchor="start" x="35" y="-132.3" font-family="Helvetica,sans-Serif" font-size="14.00">gini = 0.0</text>
<text text-anchor="start" x="21.5" y="-117.3" font-family="Helvetica,sans-Serif" font-size="14.00">samples = 47</text>
<text text-anchor="start" x="8" y="-102.3" font-family="Helvetica,sans-Serif" font-size="14.00">value = [0, 47, 0]</text>
</g>
<!-- 4&#45;&gt;5 -->
<g id="edge5" class="edge">
<title>4&#45;&gt;5</title>
<path fill="none" stroke="black" d="M175.27,-188.99C157.25,-177.52 136.83,-164.53 118.8,-153.05"/>
<polygon fill="black" stroke="black" points="120.48,-149.97 110.16,-147.56 116.72,-155.88 120.48,-149.97"/>
</g>
<!-- 6 -->
<g id="node7" class="node">
<title>6</title>
<path fill="#8139e5" stroke="black" d="M277.5,-147.5C277.5,-147.5 170.5,-147.5 170.5,-147.5 164.5,-147.5 158.5,-141.5 158.5,-135.5 158.5,-135.5 158.5,-106.5 158.5,-106.5 158.5,-100.5 164.5,-94.5 170.5,-94.5 170.5,-94.5 277.5,-94.5 277.5,-94.5 283.5,-94.5 289.5,-100.5 289.5,-106.5 289.5,-106.5 289.5,-135.5 289.5,-135.5 289.5,-141.5 283.5,-147.5 277.5,-147.5"/>
<text text-anchor="start" x="189" y="-132.3" font-family="Helvetica,sans-Serif" font-size="14.00">gini = 0.0</text>
<text text-anchor="start" x="180" y="-117.3" font-family="Helvetica,sans-Serif" font-size="14.00">samples = 1</text>
<text text-anchor="start" x="166.5" y="-102.3" font-family="Helvetica,sans-Serif" font-size="14.00">value = [0, 0, 1]</text>
</g>
<!-- 4&#45;&gt;6 -->
<g id="edge6" class="edge">
<title>4&#45;&gt;6</title>
<path fill="none" stroke="black" d="M224,-188.99C224,-179.09 224,-168.04 224,-157.82"/>
<polygon fill="black" stroke="black" points="227.5,-157.56 224,-147.56 220.5,-157.56 227.5,-157.56"/>
</g>
<!-- 8 -->
<g id="node9" class="node">
<title>8</title>
<path fill="#8139e5" stroke="black" d="M426.5,-147.5C426.5,-147.5 319.5,-147.5 319.5,-147.5 313.5,-147.5 307.5,-141.5 307.5,-135.5 307.5,-135.5 307.5,-106.5 307.5,-106.5 307.5,-100.5 313.5,-94.5 319.5,-94.5 319.5,-94.5 426.5,-94.5 426.5,-94.5 432.5,-94.5 438.5,-100.5 438.5,-106.5 438.5,-106.5 438.5,-135.5 438.5,-135.5 438.5,-141.5 432.5,-147.5 426.5,-147.5"/>
<text text-anchor="start" x="338" y="-132.3" font-family="Helvetica,sans-Serif" font-size="14.00">gini = 0.0</text>
<text text-anchor="start" x="329" y="-117.3" font-family="Helvetica,sans-Serif" font-size="14.00">samples = 3</text>
<text text-anchor="start" x="315.5" y="-102.3" font-family="Helvetica,sans-Serif" font-size="14.00">value = [0, 0, 3]</text>
</g>
<!-- 7&#45;&gt;8 -->
<g id="edge8" class="edge">
<title>7&#45;&gt;8</title>
<path fill="none" stroke="black" d="M422.22,-188.99C414.48,-178.46 405.8,-166.64 397.9,-155.9"/>
<polygon fill="black" stroke="black" points="400.52,-153.54 391.78,-147.56 394.88,-157.69 400.52,-153.54"/>
</g>
<!-- 9 -->
<g id="node10" class="node">
<title>9</title>
<path fill="#9cf2c0" stroke="black" d="M575.5,-153C575.5,-153 468.5,-153 468.5,-153 462.5,-153 456.5,-147 456.5,-141 456.5,-141 456.5,-101 456.5,-101 456.5,-95 462.5,-89 468.5,-89 468.5,-89 575.5,-89 575.5,-89 581.5,-89 587.5,-95 587.5,-101 587.5,-101 587.5,-141 587.5,-141 587.5,-147 581.5,-153 575.5,-153"/>
<text text-anchor="start" x="487" y="-138.8" font-family="Helvetica,sans-Serif" font-size="14.00">x</text>
<text text-anchor="start" x="496" y="-138.8" font-family="Helvetica,sans-Serif" baseline-shift="sub" font-size="14.00">0</text>
<text text-anchor="start" x="504" y="-138.8" font-family="Helvetica,sans-Serif" font-size="14.00"> ≤ 6.95</text>
<text text-anchor="start" x="478" y="-124.8" font-family="Helvetica,sans-Serif" font-size="14.00">gini = 0.444</text>
<text text-anchor="start" x="478" y="-110.8" font-family="Helvetica,sans-Serif" font-size="14.00">samples = 3</text>
<text text-anchor="start" x="464.5" y="-96.8" font-family="Helvetica,sans-Serif" font-size="14.00">value = [0, 2, 1]</text>
</g>
<!-- 7&#45;&gt;9 -->
<g id="edge9" class="edge">
<title>7&#45;&gt;9</title>
<path fill="none" stroke="black" d="M469.36,-188.99C476.32,-180.14 483.98,-170.39 491.26,-161.12"/>
<polygon fill="black" stroke="black" points="494.1,-163.17 497.53,-153.14 488.6,-158.84 494.1,-163.17"/>
</g>
<!-- 10 -->
<g id="node11" class="node">
<title>10</title>
<path fill="#39e581" stroke="black" d="M500.5,-53C500.5,-53 393.5,-53 393.5,-53 387.5,-53 381.5,-47 381.5,-41 381.5,-41 381.5,-12 381.5,-12 381.5,-6 387.5,0 393.5,0 393.5,0 500.5,0 500.5,0 506.5,0 512.5,-6 512.5,-12 512.5,-12 512.5,-41 512.5,-41 512.5,-47 506.5,-53 500.5,-53"/>
<text text-anchor="start" x="412" y="-37.8" font-family="Helvetica,sans-Serif" font-size="14.00">gini = 0.0</text>
<text text-anchor="start" x="403" y="-22.8" font-family="Helvetica,sans-Serif" font-size="14.00">samples = 2</text>
<text text-anchor="start" x="389.5" y="-7.8" font-family="Helvetica,sans-Serif" font-size="14.00">value = [0, 2, 0]</text>
</g>
<!-- 9&#45;&gt;10 -->
<g id="edge10" class="edge">
<title>9&#45;&gt;10</title>
<path fill="none" stroke="black" d="M496.82,-88.94C489.51,-79.93 481.5,-70.05 474.08,-60.9"/>
<polygon fill="black" stroke="black" points="476.77,-58.65 467.75,-53.09 471.33,-63.06 476.77,-58.65"/>
</g>
<!-- 11 -->
<g id="node12" class="node">
<title>11</title>
<path fill="#8139e5" stroke="black" d="M649.5,-53C649.5,-53 542.5,-53 542.5,-53 536.5,-53 530.5,-47 530.5,-41 530.5,-41 530.5,-12 530.5,-12 530.5,-6 536.5,0 542.5,0 542.5,0 649.5,0 649.5,0 655.5,0 661.5,-6 661.5,-12 661.5,-12 661.5,-41 661.5,-41 661.5,-47 655.5,-53 649.5,-53"/>
<text text-anchor="start" x="561" y="-37.8" font-family="Helvetica,sans-Serif" font-size="14.00">gini = 0.0</text>
<text text-anchor="start" x="552" y="-22.8" font-family="Helvetica,sans-Serif" font-size="14.00">samples = 1</text>
<text text-anchor="start" x="538.5" y="-7.8" font-family="Helvetica,sans-Serif" font-size="14.00">value = [0, 0, 1]</text>
</g>
<!-- 9&#45;&gt;11 -->
<g id="edge11" class="edge">
<title>9&#45;&gt;11</title>
<path fill="none" stroke="black" d="M546.85,-88.94C554.06,-79.93 561.96,-70.05 569.28,-60.9"/>
<polygon fill="black" stroke="black" points="572.01,-63.09 575.53,-53.09 566.55,-58.71 572.01,-63.09"/>
</g>
<!-- 13 -->
<g id="node14" class="node">
<title>13</title>
<path fill="#c09cf2" stroke="black" d="M724.5,-253C724.5,-253 617.5,-253 617.5,-253 611.5,-253 605.5,-247 605.5,-241 605.5,-241 605.5,-201 605.5,-201 605.5,-195 611.5,-189 617.5,-189 617.5,-189 724.5,-189 724.5,-189 730.5,-189 736.5,-195 736.5,-201 736.5,-201 736.5,-241 736.5,-241 736.5,-247 730.5,-253 724.5,-253"/>
<text text-anchor="start" x="636" y="-238.8" font-family="Helvetica,sans-Serif" font-size="14.00">x</text>
<text text-anchor="start" x="645" y="-238.8" font-family="Helvetica,sans-Serif" baseline-shift="sub" font-size="14.00">0</text>
<text text-anchor="start" x="653" y="-238.8" font-family="Helvetica,sans-Serif" font-size="14.00"> ≤ 5.95</text>
<text text-anchor="start" x="627" y="-224.8" font-family="Helvetica,sans-Serif" font-size="14.00">gini = 0.444</text>
<text text-anchor="start" x="627" y="-210.8" font-family="Helvetica,sans-Serif" font-size="14.00">samples = 3</text>
<text text-anchor="start" x="613.5" y="-196.8" font-family="Helvetica,sans-Serif" font-size="14.00">value = [0, 1, 2]</text>
</g>
<!-- 12&#45;&gt;13 -->
<g id="edge13" class="edge">
<title>12&#45;&gt;13</title>
<path fill="none" stroke="black" d="M671,-288.99C671,-280.86 671,-271.96 671,-263.38"/>
<polygon fill="black" stroke="black" points="674.5,-263.14 671,-253.14 667.5,-263.14 674.5,-263.14"/>
</g>
<!-- 16 -->
<g id="node17" class="node">
<title>16</title>
<path fill="#8139e5" stroke="black" d="M883,-247.5C883,-247.5 767,-247.5 767,-247.5 761,-247.5 755,-241.5 755,-235.5 755,-235.5 755,-206.5 755,-206.5 755,-200.5 761,-194.5 767,-194.5 767,-194.5 883,-194.5 883,-194.5 889,-194.5 895,-200.5 895,-206.5 895,-206.5 895,-235.5 895,-235.5 895,-241.5 889,-247.5 883,-247.5"/>
<text text-anchor="start" x="790" y="-232.3" font-family="Helvetica,sans-Serif" font-size="14.00">gini = 0.0</text>
<text text-anchor="start" x="776.5" y="-217.3" font-family="Helvetica,sans-Serif" font-size="14.00">samples = 43</text>
<text text-anchor="start" x="763" y="-202.3" font-family="Helvetica,sans-Serif" font-size="14.00">value = [0, 0, 43]</text>
</g>
<!-- 12&#45;&gt;16 -->
<g id="edge16" class="edge">
<title>12&#45;&gt;16</title>
<path fill="none" stroke="black" d="M719.73,-288.99C737.75,-277.52 758.17,-264.53 776.2,-253.05"/>
<polygon fill="black" stroke="black" points="778.28,-255.88 784.84,-247.56 774.52,-249.97 778.28,-255.88"/>
</g>
<!-- 14 -->
<g id="node15" class="node">
<title>14</title>
<path fill="#39e581" stroke="black" d="M724.5,-147.5C724.5,-147.5 617.5,-147.5 617.5,-147.5 611.5,-147.5 605.5,-141.5 605.5,-135.5 605.5,-135.5 605.5,-106.5 605.5,-106.5 605.5,-100.5 611.5,-94.5 617.5,-94.5 617.5,-94.5 724.5,-94.5 724.5,-94.5 730.5,-94.5 736.5,-100.5 736.5,-106.5 736.5,-106.5 736.5,-135.5 736.5,-135.5 736.5,-141.5 730.5,-147.5 724.5,-147.5"/>
<text text-anchor="start" x="636" y="-132.3" font-family="Helvetica,sans-Serif" font-size="14.00">gini = 0.0</text>
<text text-anchor="start" x="627" y="-117.3" font-family="Helvetica,sans-Serif" font-size="14.00">samples = 1</text>
<text text-anchor="start" x="613.5" y="-102.3" font-family="Helvetica,sans-Serif" font-size="14.00">value = [0, 1, 0]</text>
</g>
<!-- 13&#45;&gt;14 -->
<g id="edge14" class="edge">
<title>13&#45;&gt;14</title>
<path fill="none" stroke="black" d="M671,-188.99C671,-179.09 671,-168.04 671,-157.82"/>
<polygon fill="black" stroke="black" points="674.5,-157.56 671,-147.56 667.5,-157.56 674.5,-157.56"/>
</g>
<!-- 15 -->
<g id="node16" class="node">
<title>15</title>
<path fill="#8139e5" stroke="black" d="M873.5,-147.5C873.5,-147.5 766.5,-147.5 766.5,-147.5 760.5,-147.5 754.5,-141.5 754.5,-135.5 754.5,-135.5 754.5,-106.5 754.5,-106.5 754.5,-100.5 760.5,-94.5 766.5,-94.5 766.5,-94.5 873.5,-94.5 873.5,-94.5 879.5,-94.5 885.5,-100.5 885.5,-106.5 885.5,-106.5 885.5,-135.5 885.5,-135.5 885.5,-141.5 879.5,-147.5 873.5,-147.5"/>
<text text-anchor="start" x="785" y="-132.3" font-family="Helvetica,sans-Serif" font-size="14.00">gini = 0.0</text>
<text text-anchor="start" x="776" y="-117.3" font-family="Helvetica,sans-Serif" font-size="14.00">samples = 2</text>
<text text-anchor="start" x="762.5" y="-102.3" font-family="Helvetica,sans-Serif" font-size="14.00">value = [0, 0, 2]</text>
</g>
<!-- 13&#45;&gt;15 -->
<g id="edge15" class="edge">
<title>13&#45;&gt;15</title>
<path fill="none" stroke="black" d="M718.14,-188.99C735.58,-177.52 755.34,-164.53 772.79,-153.05"/>
<polygon fill="black" stroke="black" points="774.71,-155.98 781.14,-147.56 770.87,-150.13 774.71,-155.98"/>
</g>
</g>
</svg>
