<?xml version="1.0" encoding="UTF-8" standalone="no"?>
<!DOCTYPE svg PUBLIC "-//W3C//DTD SVG 1.1//EN"
 "http://www.w3.org/Graphics/SVG/1.1/DTD/svg11.dtd">
<!-- Generated by graphviz version 2.43.0 (0)
 -->
<!-- Title: Tree Pages: 1 -->
<svg width="611pt" height="461pt"
 viewBox="0.00 0.00 611.00 461.00" xmlns="http://www.w3.org/2000/svg" xmlns:xlink="http://www.w3.org/1999/xlink">
<g id="graph0" class="graph" transform="scale(1 1) rotate(0) translate(4 457)">
<title>Tree</title>
<polygon fill="white" stroke="transparent" points="-4,4 -4,-457 607,-457 607,4 -4,4"/>
<!-- 0 -->
<g id="node1" class="node">
<title>0</title>
<path fill="#f8f4fe" stroke="black" d="M286,-453C286,-453 152,-453 152,-453 146,-453 140,-447 140,-441 140,-441 140,-401 140,-401 140,-395 146,-389 152,-389 152,-389 286,-389 286,-389 292,-389 298,-395 298,-401 298,-401 298,-441 298,-441 298,-447 292,-453 286,-453"/>
<text text-anchor="start" x="188.5" y="-438.8" font-family="Helvetica,sans-Serif" font-size="14.00">x</text>
<text text-anchor="start" x="197.5" y="-438.8" font-family="Helvetica,sans-Serif" baseline-shift="sub" font-size="14.00">3</text>
<text text-anchor="start" x="205.5" y="-438.8" font-family="Helvetica,sans-Serif" font-size="14.00"> ≤ 0.8</text>
<text text-anchor="start" x="175" y="-424.8" font-family="Helvetica,sans-Serif" font-size="14.00">gini = 0.665</text>
<text text-anchor="start" x="166" y="-410.8" font-family="Helvetica,sans-Serif" font-size="14.00">samples = 112</text>
<text text-anchor="start" x="148" y="-396.8" font-family="Helvetica,sans-Serif" font-size="14.00">value = [37, 34, 41]</text>
</g>
<!-- 1 -->
<g id="node2" class="node">
<title>1</title>
<path fill="#e58139" stroke="black" d="M196,-347.5C196,-347.5 80,-347.5 80,-347.5 74,-347.5 68,-341.5 68,-335.5 68,-335.5 68,-306.5 68,-306.5 68,-300.5 74,-294.5 80,-294.5 80,-294.5 196,-294.5 196,-294.5 202,-294.5 208,-300.5 208,-306.5 208,-306.5 208,-335.5 208,-335.5 208,-341.5 202,-347.5 196,-347.5"/>
<text text-anchor="start" x="103" y="-332.3" font-family="Helvetica,sans-Serif" font-size="14.00">gini = 0.0</text>
<text text-anchor="start" x="89.5" y="-317.3" font-family="Helvetica,sans-Serif" font-size="14.00">samples = 37</text>
<text text-anchor="start" x="76" y="-302.3" font-family="Helvetica,sans-Serif" font-size="14.00">value = [37, 0, 0]</text>
</g>
<!-- 0&#45;&gt;1 -->
<g id="edge1" class="edge">
<title>0&#45;&gt;1</title>
<path fill="none" stroke="black" d="M193.37,-388.99C184.58,-378.36 174.71,-366.41 165.75,-355.58"/>
<polygon fill="black" stroke="black" points="168.19,-353.03 159.12,-347.56 162.8,-357.49 168.19,-353.03"/>
<text text-anchor="middle" x="156.76" y="-368.74" font-family="Helvetica,sans-Serif" font-size="14.00">True</text>
</g>
<!-- 2 -->
<g id="node3" class="node">
<title>2</title>
<path fill="#e9ddfb" stroke="black" d="M363.5,-353C363.5,-353 238.5,-353 238.5,-353 232.5,-353 226.5,-347 226.5,-341 226.5,-341 226.5,-301 226.5,-301 226.5,-295 232.5,-289 238.5,-289 238.5,-289 363.5,-289 363.5,-289 369.5,-289 375.5,-295 375.5,-301 375.5,-301 375.5,-341 375.5,-341 375.5,-347 369.5,-353 363.5,-353"/>
<text text-anchor="start" x="266" y="-338.8" font-family="Helvetica,sans-Serif" font-size="14.00">x</text>
<text text-anchor="start" x="275" y="-338.8" font-family="Helvetica,sans-Serif" baseline-shift="sub" font-size="14.00">2</text>
<text text-anchor="start" x="283" y="-338.8" font-family="Helvetica,sans-Serif" font-size="14.00"> ≤ 4.95</text>
<text text-anchor="start" x="257" y="-324.8" font-family="Helvetica,sans-Serif" font-size="14.00">gini = 0.496</text>
<text text-anchor="start" x="252.5" y="-310.8" font-family="Helvetica,sans-Serif" font-size="14.00">samples = 75</text>
<text text-anchor="start" x="234.5" y="-296.8" font-family="Helvetica,sans-Serif" font-size="14.00">value = [0, 34, 41]</text>
</g>
<!-- 0&#45;&gt;2 -->
<g id="edge2" class="edge">
<title>0&#45;&gt;2</title>
<path fill="none" stroke="black" d="M244.95,-388.99C252.42,-380.06 260.68,-370.19 268.5,-360.84"/>
<polygon fill="black" stroke="black" points="271.21,-363.06 274.94,-353.14 265.84,-358.57 271.21,-363.06"/>
<text text-anchor="middle" x="277.16" y="-374.34" font-family="Helvetica,sans-Serif" font-size="14.00">False</text>
</g>
<!-- 3 -->
<g id="node4" class="node">
<title>3</title>
<path fill="#4be78c" stroke="black" d="M280,-253C280,-253 164,-253 164,-253 158,-253 152,-247 152,-241 152,-241 152,-201 152,-201 152,-195 158,-189 164,-189 164,-189 280,-189 280,-189 286,-189 292,-195 292,-201 292,-201 292,-241 292,-241 292,-247 286,-253 280,-253"/>
<text text-anchor="start" x="187" y="-238.8" font-family="Helvetica,sans-Serif" font-size="14.00">x</text>
<text text-anchor="start" x="196" y="-238.8" font-family="Helvetica,sans-Serif" baseline-shift="sub" font-size="14.00">3</text>
<text text-anchor="start" x="204" y="-238.8" font-family="Helvetica,sans-Serif" font-size="14.00"> ≤ 1.65</text>
<text text-anchor="start" x="178" y="-224.8" font-family="Helvetica,sans-Serif" font-size="14.00">gini = 0.153</text>
<text text-anchor="start" x="173.5" y="-210.8" font-family="Helvetica,sans-Serif" font-size="14.00">samples = 36</text>
<text text-anchor="start" x="160" y="-196.8" font-family="Helvetica,sans-Serif" font-size="14.00">value = [0, 33, 3]</text>
</g>
<!-- 2&#45;&gt;3 -->
<g id="edge3" class="edge">
<title>2&#45;&gt;3</title>
<path fill="none" stroke="black" d="M276,-288.99C268.87,-280.14 261.01,-270.39 253.54,-261.12"/>
<polygon fill="black" stroke="black" points="256.11,-258.73 247.1,-253.14 250.66,-263.12 256.11,-258.73"/>
</g>
<!-- 8 -->
<g id="node9" class="node">
<title>8</title>
<path fill="#843ee6" stroke="black" d="M438,-253C438,-253 322,-253 322,-253 316,-253 310,-247 310,-241 310,-241 310,-201 310,-201 310,-195 316,-189 322,-189 322,-189 438,-189 438,-189 444,-189 450,-195 450,-201 450,-201 450,-241 450,-241 450,-247 444,-253 438,-253"/>
<text text-anchor="start" x="345" y="-238.8" font-family="Helvetica,sans-Serif" font-size="14.00">x</text>
<text text-anchor="start" x="354" y="-238.8" font-family="Helvetica,sans-Serif" baseline-shift="sub" font-size="14.00">2</text>
<text text-anchor="start" x="362" y="-238.8" font-family="Helvetica,sans-Serif" font-size="14.00"> ≤ 5.05</text>
<text text-anchor="start" x="340.5" y="-224.8" font-family="Helvetica,sans-Serif" font-size="14.00">gini = 0.05</text>
<text text-anchor="start" x="331.5" y="-210.8" font-family="Helvetica,sans-Serif" font-size="14.00">samples = 39</text>
<text text-anchor="start" x="318" y="-196.8" font-family="Helvetica,sans-Serif" font-size="14.00">value = [0, 1, 38]</text>
</g>
<!-- 2&#45;&gt;8 -->
<g id="edge8" class="edge">
<title>2&#45;&gt;8</title>
<path fill="none" stroke="black" d="M326,-288.99C333.13,-280.14 340.99,-270.39 348.46,-261.12"/>
<polygon fill="black" stroke="black" points="351.34,-263.12 354.9,-253.14 345.89,-258.73 351.34,-263.12"/>
</g>
<!-- 4 -->
<g id="node5" class="node">
<title>4</title>
<path fill="#39e581" stroke="black" d="M128,-147.5C128,-147.5 12,-147.5 12,-147.5 6,-147.5 0,-141.5 0,-135.5 0,-135.5 0,-106.5 0,-106.5 0,-100.5 6,-94.5 12,-94.5 12,-94.5 128,-94.5 128,-94.5 134,-94.5 140,-100.5 140,-106.5 140,-106.5 140,-135.5 140,-135.5 140,-141.5 134,-147.5 128,-147.5"/>
<text text-anchor="start" x="35" y="-132.3" font-family="Helvetica,sans-Serif" font-size="14.00">gini = 0.0</text>
<text text-anchor="start" x="21.5" y="-117.3" font-family="Helvetica,sans-Serif" font-size="14.00">samples = 32</text>
<text text-anchor="start" x="8" y="-102.3" font-family="Helvetica,sans-Serif" font-size="14.00">value = [0, 32, 0]</text>
</g>
<!-- 3&#45;&gt;4 -->
<g id="edge4" class="edge">
<title>3&#45;&gt;4</title>
<path fill="none" stroke="black" d="M173.91,-188.99C156.12,-177.52 135.96,-164.53 118.16,-153.05"/>
<polygon fill="black" stroke="black" points="119.94,-150.03 109.64,-147.56 116.15,-155.92 119.94,-150.03"/>
</g>
<!-- 5 -->
<g id="node6" class="node">
<title>5</title>
<path fill="#ab7bee" stroke="black" d="M277.5,-153C277.5,-153 170.5,-153 170.5,-153 164.5,-153 158.5,-147 158.5,-141 158.5,-141 158.5,-101 158.5,-101 158.5,-95 164.5,-89 170.5,-89 170.5,-89 277.5,-89 277.5,-89 283.5,-89 289.5,-95 289.5,-101 289.5,-101 289.5,-141 289.5,-141 289.5,-147 283.5,-153 277.5,-153"/>
<text text-anchor="start" x="193.5" y="-138.8" font-family="Helvetica,sans-Serif" font-size="14.00">x</text>
<text text-anchor="start" x="202.5" y="-138.8" font-family="Helvetica,sans-Serif" baseline-shift="sub" font-size="14.00">1</text>
<text text-anchor="start" x="210.5" y="-138.8" font-family="Helvetica,sans-Serif" font-size="14.00"> ≤ 3.1</text>
<text text-anchor="start" x="180" y="-124.8" font-family="Helvetica,sans-Serif" font-size="14.00">gini = 0.375</text>
<text text-anchor="start" x="180" y="-110.8" font-family="Helvetica,sans-Serif" font-size="14.00">samples = 4</text>
<text text-anchor="start" x="166.5" y="-96.8" font-family="Helvetica,sans-Serif" font-size="14.00">value = [0, 1, 3]</text>
</g>
<!-- 3&#45;&gt;5 -->
<g id="edge5" class="edge">
<title>3&#45;&gt;5</title>
<path fill="none" stroke="black" d="M222.63,-188.99C222.8,-180.86 222.98,-171.96 223.16,-163.38"/>
<polygon fill="black" stroke="black" points="226.66,-163.21 223.36,-153.14 219.66,-163.07 226.66,-163.21"/>
</g>
<!-- 6 -->
<g id="node7" class="node">
<title>6</title>
<path fill="#8139e5" stroke="black" d="M129.5,-53C129.5,-53 22.5,-53 22.5,-53 16.5,-53 10.5,-47 10.5,-41 10.5,-41 10.5,-12 10.5,-12 10.5,-6 16.5,0 22.5,0 22.5,0 129.5,0 129.5,0 135.5,0 141.5,-6 141.5,-12 141.5,-12 141.5,-41 141.5,-41 141.5,-47 135.5,-53 129.5,-53"/>
<text text-anchor="start" x="41" y="-37.8" font-family="Helvetica,sans-Serif" font-size="14.00">gini = 0.0</text>
<text text-anchor="start" x="32" y="-22.8" font-family="Helvetica,sans-Serif" font-size="14.00">samples = 3</text>
<text text-anchor="start" x="18.5" y="-7.8" font-family="Helvetica,sans-Serif" font-size="14.00">value = [0, 0, 3]</text>
</g>
<!-- 5&#45;&gt;6 -->
<g id="edge6" class="edge">
<title>5&#45;&gt;6</title>
<path fill="none" stroke="black" d="M174.31,-88.94C158.58,-79.11 141.2,-68.25 125.48,-58.43"/>
<polygon fill="black" stroke="black" points="127.28,-55.42 116.95,-53.09 123.57,-61.36 127.28,-55.42"/>
</g>
<!-- 7 -->
<g id="node8" class="node">
<title>7</title>
<path fill="#39e581" stroke="black" d="M278.5,-53C278.5,-53 171.5,-53 171.5,-53 165.5,-53 159.5,-47 159.5,-41 159.5,-41 159.5,-12 159.5,-12 159.5,-6 165.5,0 171.5,0 171.5,0 278.5,0 278.5,0 284.5,0 290.5,-6 290.5,-12 290.5,-12 290.5,-41 290.5,-41 290.5,-47 284.5,-53 278.5,-53"/>
<text text-anchor="start" x="190" y="-37.8" font-family="Helvetica,sans-Serif" font-size="14.00">gini = 0.0</text>
<text text-anchor="start" x="181" y="-22.8" font-family="Helvetica,sans-Serif" font-size="14.00">samples = 1</text>
<text text-anchor="start" x="167.5" y="-7.8" font-family="Helvetica,sans-Serif" font-size="14.00">value = [0, 1, 0]</text>
</g>
<!-- 5&#45;&gt;7 -->
<g id="edge7" class="edge">
<title>5&#45;&gt;7</title>
<path fill="none" stroke="black" d="M224.34,-88.94C224.43,-80.66 224.52,-71.64 224.61,-63.13"/>
<polygon fill="black" stroke="black" points="228.11,-63.13 224.72,-53.09 221.12,-63.05 228.11,-63.13"/>
</g>
<!-- 9 -->
<g id="node10" class="node">
<title>9</title>
<path fill="#ab7bee" stroke="black" d="M432.5,-153C432.5,-153 325.5,-153 325.5,-153 319.5,-153 313.5,-147 313.5,-141 313.5,-141 313.5,-101 313.5,-101 313.5,-95 319.5,-89 325.5,-89 325.5,-89 432.5,-89 432.5,-89 438.5,-89 444.5,-95 444.5,-101 444.5,-101 444.5,-141 444.5,-141 444.5,-147 438.5,-153 432.5,-153"/>
<text text-anchor="start" x="348.5" y="-138.8" font-family="Helvetica,sans-Serif" font-size="14.00">x</text>
<text text-anchor="start" x="357.5" y="-138.8" font-family="Helvetica,sans-Serif" baseline-shift="sub" font-size="14.00">0</text>
<text text-anchor="start" x="365.5" y="-138.8" font-family="Helvetica,sans-Serif" font-size="14.00"> ≤ 6.5</text>
<text text-anchor="start" x="335" y="-124.8" font-family="Helvetica,sans-Serif" font-size="14.00">gini = 0.375</text>
<text text-anchor="start" x="335" y="-110.8" font-family="Helvetica,sans-Serif" font-size="14.00">samples = 4</text>
<text text-anchor="start" x="321.5" y="-96.8" font-family="Helvetica,sans-Serif" font-size="14.00">value = [0, 1, 3]</text>
</g>
<!-- 8&#45;&gt;9 -->
<g id="edge9" class="edge">
<title>8&#45;&gt;9</title>
<path fill="none" stroke="black" d="M379.68,-188.99C379.6,-180.86 379.51,-171.96 379.42,-163.38"/>
<polygon fill="black" stroke="black" points="382.92,-163.11 379.32,-153.14 375.92,-163.18 382.92,-163.11"/>
</g>
<!-- 12 -->
<g id="node13" class="node">
<title>12</title>
<path fill="#8139e5" stroke="black" d="M591,-147.5C591,-147.5 475,-147.5 475,-147.5 469,-147.5 463,-141.5 463,-135.5 463,-135.5 463,-106.5 463,-106.5 463,-100.5 469,-94.5 475,-94.5 475,-94.5 591,-94.5 591,-94.5 597,-94.5 603,-100.5 603,-106.5 603,-106.5 603,-135.5 603,-135.5 603,-141.5 597,-147.5 591,-147.5"/>
<text text-anchor="start" x="498" y="-132.3" font-family="Helvetica,sans-Serif" font-size="14.00">gini = 0.0</text>
<text text-anchor="start" x="484.5" y="-117.3" font-family="Helvetica,sans-Serif" font-size="14.00">samples = 35</text>
<text text-anchor="start" x="471" y="-102.3" font-family="Helvetica,sans-Serif" font-size="14.00">value = [0, 0, 35]</text>
</g>
<!-- 8&#45;&gt;12 -->
<g id="edge12" class="edge">
<title>8&#45;&gt;12</title>
<path fill="none" stroke="black" d="M428.41,-188.99C446.32,-177.52 466.61,-164.53 484.52,-153.05"/>
<polygon fill="black" stroke="black" points="486.57,-155.9 493.1,-147.56 482.79,-150 486.57,-155.9"/>
</g>
<!-- 10 -->
<g id="node11" class="node">
<title>10</title>
<path fill="#8139e5" stroke="black" d="M431.5,-53C431.5,-53 324.5,-53 324.5,-53 318.5,-53 312.5,-47 312.5,-41 312.5,-41 312.5,-12 312.5,-12 312.5,-6 318.5,0 324.5,0 324.5,0 431.5,0 431.5,0 437.5,0 443.5,-6 443.5,-12 443.5,-12 443.5,-41 443.5,-41 443.5,-47 437.5,-53 431.5,-53"/>
<text text-anchor="start" x="343" y="-37.8" font-family="Helvetica,sans-Serif" font-size="14.00">gini = 0.0</text>
<text text-anchor="start" x="334" y="-22.8" font-family="Helvetica,sans-Serif" font-size="14.00">samples = 3</text>
<text text-anchor="start" x="320.5" y="-7.8" font-family="Helvetica,sans-Serif" font-size="14.00">value = [0, 0, 3]</text>
</g>
<!-- 9&#45;&gt;10 -->
<g id="edge10" class="edge">
<title>9&#45;&gt;10</title>
<path fill="none" stroke="black" d="M378.66,-88.94C378.57,-80.66 378.48,-71.64 378.39,-63.13"/>
<polygon fill="black" stroke="black" points="381.88,-63.05 378.28,-53.09 374.89,-63.13 381.88,-63.05"/>
</g>
<!-- 11 -->
<g id="node12" class="node">
<title>11</title>
<path fill="#39e581" stroke="black" d="M580.5,-53C580.5,-53 473.5,-53 473.5,-53 467.5,-53 461.5,-47 461.5,-41 461.5,-41 461.5,-12 461.5,-12 461.5,-6 467.5,0 473.5,0 473.5,0 580.5,0 580.5,0 586.5,0 592.5,-6 592.5,-12 592.5,-12 592.5,-41 592.5,-41 592.5,-47 586.5,-53 580.5,-53"/>
<text text-anchor="start" x="492" y="-37.8" font-family="Helvetica,sans-Serif" font-size="14.00">gini = 0.0</text>
<text text-anchor="start" x="483" y="-22.8" font-family="Helvetica,sans-Serif" font-size="14.00">samples = 1</text>
<text text-anchor="start" x="469.5" y="-7.8" font-family="Helvetica,sans-Serif" font-size="14.00">value = [0, 1, 0]</text>
</g>
<!-- 9&#45;&gt;11 -->
<g id="edge11" class="edge">
<title>9&#45;&gt;11</title>
<path fill="none" stroke="black" d="M428.69,-88.94C444.42,-79.11 461.8,-68.25 477.52,-58.43"/>
<polygon fill="black" stroke="black" points="479.43,-61.36 486.05,-53.09 475.72,-55.42 479.43,-61.36"/>
</g>
</g>
</svg>
